<mxfile host="app.diagrams.net" modified="2022-10-21T01:00:50.966Z" agent="5.0 (Windows NT 10.0; Win64; x64) AppleWebKit/537.36 (KHTML, like Gecko) Chrome/106.0.0.0 Safari/537.36" etag="cAaKJqB_QNe7b1kctMeQ" version="20.2.8" type="github" pages="2">
  <diagram id="y-6B0gpy8jbT8M1dsbLx" name="Page-1">
    <mxGraphModel dx="1422" dy="706" grid="1" gridSize="10" guides="1" tooltips="1" connect="1" arrows="1" fold="1" page="1" pageScale="1" pageWidth="1200" pageHeight="1920" math="0" shadow="0">
      <root>
        <mxCell id="0" />
        <mxCell id="1" parent="0" />
        <mxCell id="8HObmNn1gvHcCcLGnblB-32" value="" style="rounded=0;whiteSpace=wrap;html=1;labelBackgroundColor=#F8CECC;fillColor=none;dashed=1;" parent="1" vertex="1">
          <mxGeometry x="40" y="365" width="740" height="250" as="geometry" />
        </mxCell>
        <mxCell id="8HObmNn1gvHcCcLGnblB-12" value="" style="group;strokeColor=#b85450;fillColor=#F8CECC;container=0;" parent="1" vertex="1" connectable="0">
          <mxGeometry x="380" y="390" width="170" height="160" as="geometry" />
        </mxCell>
        <mxCell id="8HObmNn1gvHcCcLGnblB-13" value="" style="rounded=0;whiteSpace=wrap;html=1;fillColor=#f8cecc;strokeColor=#b85450;" parent="1" vertex="1">
          <mxGeometry x="380" y="390" width="170" height="200" as="geometry" />
        </mxCell>
        <mxCell id="8HObmNn1gvHcCcLGnblB-14" value="&lt;span style=&quot;font-size: 18px&quot;&gt;Cache&lt;/span&gt;" style="rounded=0;whiteSpace=wrap;html=1;" parent="1" vertex="1">
          <mxGeometry x="390" y="450" width="70" height="40" as="geometry" />
        </mxCell>
        <mxCell id="8HObmNn1gvHcCcLGnblB-15" value="&lt;font style=&quot;font-size: 18px&quot;&gt;TSI&lt;/font&gt;" style="rounded=0;whiteSpace=wrap;html=1;" parent="1" vertex="1">
          <mxGeometry x="470" y="450" width="70" height="40" as="geometry" />
        </mxCell>
        <mxCell id="8HObmNn1gvHcCcLGnblB-16" value="&lt;font style=&quot;font-size: 18px&quot;&gt;WAL&lt;/font&gt;" style="rounded=0;whiteSpace=wrap;html=1;" parent="1" vertex="1">
          <mxGeometry x="390" y="500" width="70" height="40" as="geometry" />
        </mxCell>
        <mxCell id="8HObmNn1gvHcCcLGnblB-17" value="&lt;font style=&quot;font-size: 18px&quot;&gt;TSM&lt;/font&gt;" style="rounded=0;whiteSpace=wrap;html=1;" parent="1" vertex="1">
          <mxGeometry x="470" y="500" width="70" height="40" as="geometry" />
        </mxCell>
        <mxCell id="8HObmNn1gvHcCcLGnblB-18" value="&lt;span style=&quot;color: rgb(0 , 0 , 0) ; font-family: &amp;#34;helvetica&amp;#34; ; font-size: 18px ; font-style: normal ; font-weight: 400 ; letter-spacing: normal ; text-align: center ; text-indent: 0px ; text-transform: none ; word-spacing: 0px ; display: inline ; float: none&quot;&gt;Shard&lt;/span&gt;" style="text;whiteSpace=wrap;html=1;labelBackgroundColor=#F8CECC;" parent="1" vertex="1">
          <mxGeometry x="390" y="400" width="80" height="30" as="geometry" />
        </mxCell>
        <mxCell id="8HObmNn1gvHcCcLGnblB-21" value="" style="group;strokeColor=#b85450;fillColor=#F8CECC;container=0;" parent="1" vertex="1" connectable="0">
          <mxGeometry x="580" y="390" width="170" height="160" as="geometry" />
        </mxCell>
        <mxCell id="8HObmNn1gvHcCcLGnblB-22" value="" style="rounded=0;whiteSpace=wrap;html=1;fillColor=#f8cecc;strokeColor=#b85450;" parent="1" vertex="1">
          <mxGeometry x="580" y="390" width="170" height="200" as="geometry" />
        </mxCell>
        <mxCell id="8HObmNn1gvHcCcLGnblB-23" value="&lt;span style=&quot;font-size: 18px&quot;&gt;Cache&lt;/span&gt;" style="rounded=0;whiteSpace=wrap;html=1;" parent="1" vertex="1">
          <mxGeometry x="590" y="450" width="70" height="40" as="geometry" />
        </mxCell>
        <mxCell id="8HObmNn1gvHcCcLGnblB-24" value="&lt;font style=&quot;font-size: 18px&quot;&gt;TSI&lt;/font&gt;" style="rounded=0;whiteSpace=wrap;html=1;" parent="1" vertex="1">
          <mxGeometry x="670" y="450" width="70" height="40" as="geometry" />
        </mxCell>
        <mxCell id="8HObmNn1gvHcCcLGnblB-25" value="&lt;font style=&quot;font-size: 18px&quot;&gt;WAL&lt;/font&gt;" style="rounded=0;whiteSpace=wrap;html=1;" parent="1" vertex="1">
          <mxGeometry x="590" y="500" width="70" height="40" as="geometry" />
        </mxCell>
        <mxCell id="8HObmNn1gvHcCcLGnblB-26" value="&lt;font style=&quot;font-size: 18px&quot;&gt;TSM&lt;/font&gt;" style="rounded=0;whiteSpace=wrap;html=1;" parent="1" vertex="1">
          <mxGeometry x="670" y="500" width="70" height="40" as="geometry" />
        </mxCell>
        <mxCell id="8HObmNn1gvHcCcLGnblB-27" value="&lt;span style=&quot;color: rgb(0 , 0 , 0) ; font-family: &amp;#34;helvetica&amp;#34; ; font-size: 18px ; font-style: normal ; font-weight: 400 ; letter-spacing: normal ; text-align: center ; text-indent: 0px ; text-transform: none ; word-spacing: 0px ; display: inline ; float: none&quot;&gt;Shard&lt;/span&gt;" style="text;whiteSpace=wrap;html=1;labelBackgroundColor=#F8CECC;" parent="1" vertex="1">
          <mxGeometry x="590" y="400" width="80" height="30" as="geometry" />
        </mxCell>
        <mxCell id="8HObmNn1gvHcCcLGnblB-8" value="" style="group;strokeColor=#b85450;fillColor=#F8CECC;container=0;" parent="1" vertex="1" connectable="0">
          <mxGeometry x="180" y="390" width="170" height="160" as="geometry" />
        </mxCell>
        <mxCell id="8HObmNn1gvHcCcLGnblB-2" value="" style="rounded=0;whiteSpace=wrap;html=1;fillColor=#f8cecc;strokeColor=#b85450;" parent="1" vertex="1">
          <mxGeometry x="180" y="390" width="170" height="200" as="geometry" />
        </mxCell>
        <mxCell id="8HObmNn1gvHcCcLGnblB-3" value="&lt;span style=&quot;font-size: 18px&quot;&gt;Cache&lt;/span&gt;" style="rounded=0;whiteSpace=wrap;html=1;" parent="1" vertex="1">
          <mxGeometry x="190" y="450" width="70" height="40" as="geometry" />
        </mxCell>
        <mxCell id="8HObmNn1gvHcCcLGnblB-4" value="&lt;font style=&quot;font-size: 18px&quot;&gt;TSI&lt;/font&gt;" style="rounded=0;whiteSpace=wrap;html=1;" parent="1" vertex="1">
          <mxGeometry x="270" y="450" width="70" height="40" as="geometry" />
        </mxCell>
        <mxCell id="8HObmNn1gvHcCcLGnblB-5" value="&lt;font style=&quot;font-size: 18px&quot;&gt;WAL&lt;/font&gt;" style="rounded=0;whiteSpace=wrap;html=1;" parent="1" vertex="1">
          <mxGeometry x="190" y="500" width="70" height="40" as="geometry" />
        </mxCell>
        <mxCell id="8HObmNn1gvHcCcLGnblB-6" value="&lt;font style=&quot;font-size: 18px&quot;&gt;TSM&lt;/font&gt;" style="rounded=0;whiteSpace=wrap;html=1;" parent="1" vertex="1">
          <mxGeometry x="270" y="500" width="70" height="40" as="geometry" />
        </mxCell>
        <mxCell id="8HObmNn1gvHcCcLGnblB-9" value="&lt;span style=&quot;color: rgb(0 , 0 , 0) ; font-family: &amp;#34;helvetica&amp;#34; ; font-size: 18px ; font-style: normal ; font-weight: 400 ; letter-spacing: normal ; text-align: center ; text-indent: 0px ; text-transform: none ; word-spacing: 0px ; display: inline ; float: none&quot;&gt;Shard&lt;/span&gt;" style="text;whiteSpace=wrap;html=1;labelBackgroundColor=#F8CECC;" parent="1" vertex="1">
          <mxGeometry x="190" y="400" width="80" height="30" as="geometry" />
        </mxCell>
        <mxCell id="8HObmNn1gvHcCcLGnblB-30" value="&lt;font style=&quot;font-size: 18px&quot;&gt;&lt;b&gt;... ...&lt;/b&gt;&lt;/font&gt;" style="rounded=0;whiteSpace=wrap;html=1;fillColor=#f8cecc;strokeColor=#b85450;" parent="1" vertex="1">
          <mxGeometry x="70" y="390" width="80" height="200" as="geometry" />
        </mxCell>
        <mxCell id="8HObmNn1gvHcCcLGnblB-39" value="&lt;font style=&quot;font-size: 18px&quot;&gt;ShardGroup&lt;/font&gt;" style="rounded=1;whiteSpace=wrap;html=1;labelBackgroundColor=none;fillColor=#dae8fc;strokeColor=#6c8ebf;" parent="1" vertex="1">
          <mxGeometry x="385" y="230" width="160" height="60" as="geometry" />
        </mxCell>
        <mxCell id="8HObmNn1gvHcCcLGnblB-40" value="&lt;font style=&quot;font-size: 18px&quot;&gt;Retention Policy&lt;br&gt;(Default)&lt;br&gt;&lt;/font&gt;" style="rounded=1;whiteSpace=wrap;html=1;labelBackgroundColor=none;fillColor=#dae8fc;strokeColor=#6c8ebf;" parent="1" vertex="1">
          <mxGeometry x="260" y="130" width="200" height="60" as="geometry" />
        </mxCell>
        <mxCell id="3fBI6RguhEw-ysK2hazR-1" value="" style="endArrow=classic;html=1;exitX=0.5;exitY=1;exitDx=0;exitDy=0;entryX=0.5;entryY=0;entryDx=0;entryDy=0;" parent="1" source="8HObmNn1gvHcCcLGnblB-39" target="8HObmNn1gvHcCcLGnblB-2" edge="1">
          <mxGeometry width="50" height="50" relative="1" as="geometry">
            <mxPoint x="170" y="380" as="sourcePoint" />
            <mxPoint x="220" y="330" as="targetPoint" />
          </mxGeometry>
        </mxCell>
        <mxCell id="3fBI6RguhEw-ysK2hazR-2" value="" style="endArrow=classic;html=1;exitX=0.5;exitY=1;exitDx=0;exitDy=0;entryX=0.5;entryY=0;entryDx=0;entryDy=0;" parent="1" source="8HObmNn1gvHcCcLGnblB-39" target="8HObmNn1gvHcCcLGnblB-13" edge="1">
          <mxGeometry width="50" height="50" relative="1" as="geometry">
            <mxPoint x="390" y="300" as="sourcePoint" />
            <mxPoint x="275" y="400" as="targetPoint" />
          </mxGeometry>
        </mxCell>
        <mxCell id="3fBI6RguhEw-ysK2hazR-3" value="" style="endArrow=classic;html=1;exitX=0.5;exitY=1;exitDx=0;exitDy=0;" parent="1" source="8HObmNn1gvHcCcLGnblB-39" edge="1">
          <mxGeometry width="50" height="50" relative="1" as="geometry">
            <mxPoint x="380" y="290" as="sourcePoint" />
            <mxPoint x="670" y="390" as="targetPoint" />
          </mxGeometry>
        </mxCell>
        <mxCell id="3fBI6RguhEw-ysK2hazR-4" value="这是一个逻辑概念，按时间划分，作为时间过期的执行单元" style="text;html=1;strokeColor=none;fillColor=none;align=left;verticalAlign=middle;whiteSpace=wrap;rounded=0;" parent="1" vertex="1">
          <mxGeometry x="710" y="240" width="210" height="40" as="geometry" />
        </mxCell>
        <mxCell id="3fBI6RguhEw-ysK2hazR-5" value="type Store struct&#xa;tsdb/store.go" style="swimlane;fontStyle=0;childLayout=stackLayout;horizontal=1;startSize=40;fillColor=none;horizontalStack=0;resizeParent=1;resizeParentMax=0;resizeLast=0;collapsible=1;marginBottom=0;" parent="1" vertex="1">
          <mxGeometry x="80" y="1120" width="180" height="92" as="geometry">
            <mxRectangle x="510" y="1130" width="120" height="40" as="alternateBounds" />
          </mxGeometry>
        </mxCell>
        <mxCell id="3fBI6RguhEw-ysK2hazR-6" value="+ shards: map[uint64]*Shard" style="text;strokeColor=none;fillColor=none;align=left;verticalAlign=top;spacingLeft=4;spacingRight=4;overflow=hidden;rotatable=0;points=[[0,0.5],[1,0.5]];portConstraint=eastwest;" parent="3fBI6RguhEw-ysK2hazR-5" vertex="1">
          <mxGeometry y="40" width="180" height="26" as="geometry" />
        </mxCell>
        <mxCell id="3fBI6RguhEw-ysK2hazR-7" value="+ sfiles: map[string]*SeriesFile&#xa;&#xa;&#xa;+&#xa;" style="text;strokeColor=none;fillColor=none;align=left;verticalAlign=top;spacingLeft=4;spacingRight=4;overflow=hidden;rotatable=0;points=[[0,0.5],[1,0.5]];portConstraint=eastwest;" parent="3fBI6RguhEw-ysK2hazR-5" vertex="1">
          <mxGeometry y="66" width="180" height="26" as="geometry" />
        </mxCell>
        <mxCell id="3fBI6RguhEw-ysK2hazR-18" value="type Shard struct&#xa;tsdb/shard.go" style="swimlane;fontStyle=0;childLayout=stackLayout;horizontal=1;startSize=40;fillColor=none;horizontalStack=0;resizeParent=1;resizeParentMax=0;resizeLast=0;collapsible=1;marginBottom=0;" parent="1" vertex="1">
          <mxGeometry x="370" y="1120" width="180" height="92" as="geometry">
            <mxRectangle x="510" y="1130" width="120" height="40" as="alternateBounds" />
          </mxGeometry>
        </mxCell>
        <mxCell id="3fBI6RguhEw-ysK2hazR-19" value="+ _engine: Engine" style="text;strokeColor=none;fillColor=none;align=left;verticalAlign=top;spacingLeft=4;spacingRight=4;overflow=hidden;rotatable=0;points=[[0,0.5],[1,0.5]];portConstraint=eastwest;" parent="3fBI6RguhEw-ysK2hazR-18" vertex="1">
          <mxGeometry y="40" width="180" height="26" as="geometry" />
        </mxCell>
        <mxCell id="3fBI6RguhEw-ysK2hazR-24" value="+ index: Index" style="text;strokeColor=none;fillColor=none;align=left;verticalAlign=top;spacingLeft=4;spacingRight=4;overflow=hidden;rotatable=0;points=[[0,0.5],[1,0.5]];portConstraint=eastwest;" parent="3fBI6RguhEw-ysK2hazR-18" vertex="1">
          <mxGeometry y="66" width="180" height="26" as="geometry" />
        </mxCell>
        <mxCell id="3fBI6RguhEw-ysK2hazR-21" value="" style="endArrow=diamondThin;endFill=1;endSize=24;html=1;exitX=1;exitY=0.25;exitDx=0;exitDy=0;entryX=0;entryY=0.25;entryDx=0;entryDy=0;" parent="1" source="3fBI6RguhEw-ysK2hazR-5" target="3fBI6RguhEw-ysK2hazR-18" edge="1">
          <mxGeometry width="160" relative="1" as="geometry">
            <mxPoint x="320" y="1220" as="sourcePoint" />
            <mxPoint x="480" y="1220" as="targetPoint" />
          </mxGeometry>
        </mxCell>
        <mxCell id="3fBI6RguhEw-ysK2hazR-22" value="type Engine struct&#xa;tsdb/engine/tsm1/engine.go" style="swimlane;fontStyle=0;childLayout=stackLayout;horizontal=1;startSize=40;fillColor=none;horizontalStack=0;resizeParent=1;resizeParentMax=0;resizeLast=0;collapsible=1;marginBottom=0;" parent="1" vertex="1">
          <mxGeometry x="640" y="1120" width="180" height="196" as="geometry">
            <mxRectangle x="510" y="1130" width="120" height="40" as="alternateBounds" />
          </mxGeometry>
        </mxCell>
        <mxCell id="3fBI6RguhEw-ysK2hazR-23" value="+ index: tsdb.Index" style="text;strokeColor=none;fillColor=none;align=left;verticalAlign=top;spacingLeft=4;spacingRight=4;overflow=hidden;rotatable=0;points=[[0,0.5],[1,0.5]];portConstraint=eastwest;" parent="3fBI6RguhEw-ysK2hazR-22" vertex="1">
          <mxGeometry y="40" width="180" height="26" as="geometry" />
        </mxCell>
        <mxCell id="3fBI6RguhEw-ysK2hazR-26" value="+ sfile: *tsdb.SeriesFile" style="text;strokeColor=none;fillColor=none;align=left;verticalAlign=top;spacingLeft=4;spacingRight=4;overflow=hidden;rotatable=0;points=[[0,0.5],[1,0.5]];portConstraint=eastwest;" parent="3fBI6RguhEw-ysK2hazR-22" vertex="1">
          <mxGeometry y="66" width="180" height="26" as="geometry" />
        </mxCell>
        <mxCell id="3fBI6RguhEw-ysK2hazR-28" value="+ WAL: *WAL" style="text;strokeColor=none;fillColor=none;align=left;verticalAlign=top;spacingLeft=4;spacingRight=4;overflow=hidden;rotatable=0;points=[[0,0.5],[1,0.5]];portConstraint=eastwest;" parent="3fBI6RguhEw-ysK2hazR-22" vertex="1">
          <mxGeometry y="92" width="180" height="26" as="geometry" />
        </mxCell>
        <mxCell id="3fBI6RguhEw-ysK2hazR-30" value="+ Cache: *Cache" style="text;strokeColor=none;fillColor=none;align=left;verticalAlign=top;spacingLeft=4;spacingRight=4;overflow=hidden;rotatable=0;points=[[0,0.5],[1,0.5]];portConstraint=eastwest;" parent="3fBI6RguhEw-ysK2hazR-22" vertex="1">
          <mxGeometry y="118" width="180" height="26" as="geometry" />
        </mxCell>
        <mxCell id="3fBI6RguhEw-ysK2hazR-29" value="+ Compactor: *Compactor" style="text;strokeColor=none;fillColor=none;align=left;verticalAlign=top;spacingLeft=4;spacingRight=4;overflow=hidden;rotatable=0;points=[[0,0.5],[1,0.5]];portConstraint=eastwest;" parent="3fBI6RguhEw-ysK2hazR-22" vertex="1">
          <mxGeometry y="144" width="180" height="26" as="geometry" />
        </mxCell>
        <mxCell id="3fBI6RguhEw-ysK2hazR-27" value="+ FileStore: *FileStore" style="text;strokeColor=none;fillColor=none;align=left;verticalAlign=top;spacingLeft=4;spacingRight=4;overflow=hidden;rotatable=0;points=[[0,0.5],[1,0.5]];portConstraint=eastwest;" parent="3fBI6RguhEw-ysK2hazR-22" vertex="1">
          <mxGeometry y="170" width="180" height="26" as="geometry" />
        </mxCell>
        <mxCell id="3fBI6RguhEw-ysK2hazR-25" value="" style="endArrow=diamondThin;endFill=1;endSize=24;html=1;exitX=1;exitY=0.25;exitDx=0;exitDy=0;entryX=0.009;entryY=0.098;entryDx=0;entryDy=0;entryPerimeter=0;" parent="1" source="3fBI6RguhEw-ysK2hazR-18" target="3fBI6RguhEw-ysK2hazR-22" edge="1">
          <mxGeometry width="160" relative="1" as="geometry">
            <mxPoint x="270" y="1153" as="sourcePoint" />
            <mxPoint x="350" y="1153" as="targetPoint" />
          </mxGeometry>
        </mxCell>
        <mxCell id="3fBI6RguhEw-ysK2hazR-31" value="type Cache struct&#xa;tsdb/engine/tsm1/cache.go" style="swimlane;fontStyle=0;childLayout=stackLayout;horizontal=1;startSize=40;fillColor=none;horizontalStack=0;resizeParent=1;resizeParentMax=0;resizeLast=0;collapsible=1;marginBottom=0;" parent="1" vertex="1">
          <mxGeometry x="900" y="1133" width="180" height="66" as="geometry">
            <mxRectangle x="510" y="1130" width="120" height="40" as="alternateBounds" />
          </mxGeometry>
        </mxCell>
        <mxCell id="3fBI6RguhEw-ysK2hazR-32" value="+ store: storer" style="text;strokeColor=none;fillColor=none;align=left;verticalAlign=top;spacingLeft=4;spacingRight=4;overflow=hidden;rotatable=0;points=[[0,0.5],[1,0.5]];portConstraint=eastwest;" parent="3fBI6RguhEw-ysK2hazR-31" vertex="1">
          <mxGeometry y="40" width="180" height="26" as="geometry" />
        </mxCell>
        <mxCell id="3fBI6RguhEw-ysK2hazR-34" value="" style="endArrow=diamondThin;endFill=1;endSize=24;html=1;exitX=1.006;exitY=0.099;exitDx=0;exitDy=0;entryX=0;entryY=0.25;entryDx=0;entryDy=0;exitPerimeter=0;" parent="1" source="3fBI6RguhEw-ysK2hazR-22" target="3fBI6RguhEw-ysK2hazR-31" edge="1">
          <mxGeometry width="160" relative="1" as="geometry">
            <mxPoint x="560" y="1152.9999999999998" as="sourcePoint" />
            <mxPoint x="651.6200000000001" y="1149.208" as="targetPoint" />
          </mxGeometry>
        </mxCell>
        <mxCell id="dMbVqsdhCFa5y3zsZ4Fm-1" value="&lt;font style=&quot;font-size: 18px&quot;&gt;ShardGroup&lt;/font&gt;" style="rounded=1;whiteSpace=wrap;html=1;labelBackgroundColor=none;fillColor=#dae8fc;strokeColor=#6c8ebf;" parent="1" vertex="1">
          <mxGeometry x="185" y="230" width="160" height="60" as="geometry" />
        </mxCell>
        <mxCell id="dMbVqsdhCFa5y3zsZ4Fm-3" value="&lt;span style=&quot;font-size: 18px&quot;&gt;&lt;b&gt;... ...&lt;/b&gt;&lt;/span&gt;" style="rounded=1;whiteSpace=wrap;html=1;labelBackgroundColor=none;fillColor=#dae8fc;strokeColor=#6c8ebf;" parent="1" vertex="1">
          <mxGeometry x="590" y="230" width="100" height="60" as="geometry" />
        </mxCell>
        <mxCell id="dMbVqsdhCFa5y3zsZ4Fm-4" value="&lt;font style=&quot;font-size: 18px&quot;&gt;DataBase&lt;/font&gt;" style="rounded=1;whiteSpace=wrap;html=1;labelBackgroundColor=none;fillColor=#dae8fc;strokeColor=#6c8ebf;" parent="1" vertex="1">
          <mxGeometry x="405" y="20" width="200" height="60" as="geometry" />
        </mxCell>
        <mxCell id="dMbVqsdhCFa5y3zsZ4Fm-5" value="&lt;font style=&quot;font-size: 18px&quot;&gt;Retention Policy&lt;/font&gt;" style="rounded=1;whiteSpace=wrap;html=1;labelBackgroundColor=none;fillColor=#dae8fc;strokeColor=#6c8ebf;" parent="1" vertex="1">
          <mxGeometry x="550" y="130" width="200" height="60" as="geometry" />
        </mxCell>
        <mxCell id="dMbVqsdhCFa5y3zsZ4Fm-6" value="" style="endArrow=classic;html=1;exitX=0.5;exitY=1;exitDx=0;exitDy=0;entryX=0.5;entryY=0;entryDx=0;entryDy=0;" parent="1" source="8HObmNn1gvHcCcLGnblB-40" target="dMbVqsdhCFa5y3zsZ4Fm-1" edge="1">
          <mxGeometry width="50" height="50" relative="1" as="geometry">
            <mxPoint x="475" y="300" as="sourcePoint" />
            <mxPoint x="275" y="400" as="targetPoint" />
          </mxGeometry>
        </mxCell>
        <mxCell id="dMbVqsdhCFa5y3zsZ4Fm-7" value="" style="endArrow=classic;html=1;entryX=0.5;entryY=0;entryDx=0;entryDy=0;exitX=0.5;exitY=1;exitDx=0;exitDy=0;" parent="1" source="8HObmNn1gvHcCcLGnblB-40" target="8HObmNn1gvHcCcLGnblB-39" edge="1">
          <mxGeometry width="50" height="50" relative="1" as="geometry">
            <mxPoint x="475" y="300" as="sourcePoint" />
            <mxPoint x="275" y="400" as="targetPoint" />
          </mxGeometry>
        </mxCell>
        <mxCell id="dMbVqsdhCFa5y3zsZ4Fm-8" value="" style="endArrow=classic;html=1;entryX=0.5;entryY=0;entryDx=0;entryDy=0;exitX=0.5;exitY=1;exitDx=0;exitDy=0;" parent="1" source="dMbVqsdhCFa5y3zsZ4Fm-4" target="8HObmNn1gvHcCcLGnblB-40" edge="1">
          <mxGeometry width="50" height="50" relative="1" as="geometry">
            <mxPoint x="370" y="200" as="sourcePoint" />
            <mxPoint x="475" y="240" as="targetPoint" />
          </mxGeometry>
        </mxCell>
        <mxCell id="dMbVqsdhCFa5y3zsZ4Fm-9" value="" style="endArrow=classic;html=1;entryX=0.5;entryY=0;entryDx=0;entryDy=0;exitX=0.5;exitY=1;exitDx=0;exitDy=0;" parent="1" source="dMbVqsdhCFa5y3zsZ4Fm-4" target="dMbVqsdhCFa5y3zsZ4Fm-5" edge="1">
          <mxGeometry width="50" height="50" relative="1" as="geometry">
            <mxPoint x="480" y="89.99999999999989" as="sourcePoint" />
            <mxPoint x="370" y="139.9999999999999" as="targetPoint" />
          </mxGeometry>
        </mxCell>
        <mxCell id="dMbVqsdhCFa5y3zsZ4Fm-10" value="不同表可以设置不同的RP，可以设置：A) 数据过期时间；B) 副本数量；C) ShardGroup 时间。" style="text;html=1;strokeColor=none;fillColor=none;align=left;verticalAlign=middle;whiteSpace=wrap;rounded=0;" parent="1" vertex="1">
          <mxGeometry x="770" y="140" width="210" height="50" as="geometry" />
        </mxCell>
        <mxCell id="dMbVqsdhCFa5y3zsZ4Fm-11" value="也就是TSM Engine，负责读写、刷盘、Compaction 等；&lt;br&gt;时间范围内的数据会按照SeriesKey进行Hash，并映射到对应的Shard。" style="text;html=1;strokeColor=none;fillColor=none;align=left;verticalAlign=middle;whiteSpace=wrap;rounded=0;" parent="1" vertex="1">
          <mxGeometry x="800" y="390" width="210" height="80" as="geometry" />
        </mxCell>
      </root>
    </mxGraphModel>
  </diagram>
  <diagram id="mNZraBjpPKN7B9HbIxm_" name="InvertedIndex">
    <mxGraphModel dx="1422" dy="706" grid="1" gridSize="10" guides="1" tooltips="1" connect="1" arrows="1" fold="1" page="1" pageScale="1" pageWidth="1200" pageHeight="1920" math="0" shadow="0">
      <root>
        <mxCell id="RnTHXRJbFf59-PCWgG7Q-0" />
        <mxCell id="RnTHXRJbFf59-PCWgG7Q-1" parent="RnTHXRJbFf59-PCWgG7Q-0" />
        <mxCell id="FK8JSx_vCq_R8ogNGAHj-0" value="&lt;font style=&quot;font-size: 18px;&quot;&gt;cpu,host=A,region=west#idle &amp;gt;&amp;gt;&amp;gt; 1&lt;br&gt;cpu,host=B,region=west#idle &amp;gt;&amp;gt;&amp;gt; 2&lt;br&gt;&lt;/font&gt;" style="text;html=1;strokeColor=none;fillColor=none;align=left;verticalAlign=middle;whiteSpace=wrap;rounded=0;" vertex="1" parent="RnTHXRJbFf59-PCWgG7Q-1">
          <mxGeometry x="250" y="130" width="340" height="60" as="geometry" />
        </mxCell>
        <mxCell id="FK8JSx_vCq_R8ogNGAHj-1" value="&lt;font color=&quot;#7ea6e0&quot;&gt;Series to ID&lt;br&gt;以整型保存减小内存开销&lt;/font&gt;" style="text;html=1;strokeColor=none;fillColor=none;align=center;verticalAlign=middle;whiteSpace=wrap;rounded=0;fontSize=18;" vertex="1" parent="RnTHXRJbFf59-PCWgG7Q-1">
          <mxGeometry x="280" y="80" width="230" height="60" as="geometry" />
        </mxCell>
        <mxCell id="FK8JSx_vCq_R8ogNGAHj-2" value="&lt;font style=&quot;font-size: 18px;&quot;&gt;cpu&amp;nbsp; &amp;nbsp; &amp;nbsp;&amp;gt;&amp;gt;&amp;gt; [idle]&amp;nbsp; &amp;nbsp; &amp;nbsp; &amp;nbsp;measurement to fields&lt;br&gt;host&amp;nbsp; &amp;nbsp; &amp;gt;&amp;gt;&amp;gt; [A, B]&amp;nbsp; &amp;nbsp; &amp;nbsp; host to values&lt;br&gt;region &amp;gt;&amp;gt;&amp;gt; [west]&amp;nbsp; &amp;nbsp; &amp;nbsp;region to values&lt;br&gt;&lt;/font&gt;" style="text;html=1;strokeColor=none;fillColor=none;align=left;verticalAlign=middle;whiteSpace=wrap;rounded=0;" vertex="1" parent="RnTHXRJbFf59-PCWgG7Q-1">
          <mxGeometry x="250" y="270" width="410" height="60" as="geometry" />
        </mxCell>
        <mxCell id="FK8JSx_vCq_R8ogNGAHj-3" value="&lt;font style=&quot;font-size: 18px;&quot;&gt;cpu &amp;gt;&amp;gt;&amp;gt; [1, 2]&lt;br&gt;host=A &amp;gt;&amp;gt;&amp;gt; [1]&lt;br&gt;host=B &amp;gt;&amp;gt;&amp;gt; [2]&lt;br&gt;region=west &amp;gt;&amp;gt;&amp;gt; [1,2]&lt;br&gt;&lt;/font&gt;" style="text;html=1;strokeColor=none;fillColor=none;align=left;verticalAlign=middle;whiteSpace=wrap;rounded=0;" vertex="1" parent="RnTHXRJbFf59-PCWgG7Q-1">
          <mxGeometry x="260" y="420" width="410" height="110" as="geometry" />
        </mxCell>
        <mxCell id="FK8JSx_vCq_R8ogNGAHj-4" value="&lt;font color=&quot;#7ea6e0&quot;&gt;Postings Lists&lt;/font&gt;" style="text;html=1;strokeColor=none;fillColor=none;align=center;verticalAlign=middle;whiteSpace=wrap;rounded=0;fontSize=18;" vertex="1" parent="RnTHXRJbFf59-PCWgG7Q-1">
          <mxGeometry x="240" y="380" width="230" height="60" as="geometry" />
        </mxCell>
      </root>
    </mxGraphModel>
  </diagram>
</mxfile>
